M48
; DRILL file KiCad 10.0.3 date 2026-07-12T15:20:26
; FORMAT={-:-/ absolute / metric / decimal}
; #@! TF.CreationDate,2026-07-12T15:20:26-05:00
; #@! TF.GenerationSoftware,Kicad,Pcbnew,10.0.3
; #@! TF.FileFunction,Plated,1,2,PTH
FMAT,2
METRIC
; #@! TA.AperFunction,Plated,PTH,ViaDrill
T1C0.300
; #@! TA.AperFunction,Plated,PTH,ComponentDrill
T2C0.800
; #@! TA.AperFunction,Plated,PTH,ComponentDrill
T3C1.000
; #@! TA.AperFunction,Plated,PTH,ComponentDrill
T4C1.100
; #@! TA.AperFunction,Plated,PTH,ComponentDrill
T5C1.200
%
G90
G05
T1
X99.1Y-9.7
X107.4Y-14.55
T2
X11.85Y-176.85
X11.85Y-178.85
X19.45Y-17.75
X19.468Y-113.0
X21.45Y-17.75
X21.968Y-113.0
X57.7Y-18.5
X58.4Y-111.1
X59.7Y-18.5
X60.4Y-111.1
X75.75Y-18.8
X77.75Y-18.8
X96.818Y-111.2
X99.318Y-111.2
X110.1Y-177.75
X112.05Y-136.9
X112.05Y-139.4
X112.1Y-177.75
T3
X33.335Y-221.25
X35.875Y-221.25
X43.26Y-221.2
X45.8Y-221.2
X54.46Y-221.35
X57.0Y-221.35
X66.11Y-221.2
X68.65Y-221.2
X78.71Y-221.35
X81.25Y-221.35
T4
X36.84Y-5.45
X40.65Y-5.45
X48.345Y-5.467
X52.155Y-5.467
X61.75Y-5.8
X65.56Y-5.8
X73.95Y-5.9
X77.76Y-5.9
X86.7Y-5.8
X90.51Y-5.8
T5
X10.8Y-135.326
X10.8Y-140.326
M30
