%TF.GenerationSoftware,KiCad,Pcbnew,10.0.3*%
%TF.CreationDate,2026-07-12T15:20:22-05:00*%
%TF.ProjectId,Automation Device (Version 5),4175746f-6d61-4746-996f-6e2044657669,5.1*%
%TF.SameCoordinates,Original*%
%TF.FileFunction,Soldermask,Bot*%
%TF.FilePolarity,Negative*%
%FSLAX46Y46*%
G04 Gerber Fmt 4.6, Leading zero omitted, Abs format (unit mm)*
G04 Created by KiCad (PCBNEW 10.0.3) date 2026-07-12 15:20:22*
%MOMM*%
%LPD*%
G01*
G04 APERTURE LIST*
G04 Aperture macros list*
%AMRoundRect*
0 Rectangle with rounded corners*
0 $1 Rounding radius*
0 $2 $3 $4 $5 $6 $7 $8 $9 X,Y pos of 4 corners*
0 Add a 4 corners polygon primitive as box body*
4,1,4,$2,$3,$4,$5,$6,$7,$8,$9,$2,$3,0*
0 Add four circle primitives for the rounded corners*
1,1,$1+$1,$2,$3*
1,1,$1+$1,$4,$5*
1,1,$1+$1,$6,$7*
1,1,$1+$1,$8,$9*
0 Add four rect primitives between the rounded corners*
20,1,$1+$1,$2,$3,$4,$5,0*
20,1,$1+$1,$4,$5,$6,$7,0*
20,1,$1+$1,$6,$7,$8,$9,0*
20,1,$1+$1,$8,$9,$2,$3,0*%
G04 Aperture macros list end*
%ADD10C,2.700000*%
%ADD11C,1.600000*%
%ADD12RoundRect,0.250000X-0.550000X0.550000X-0.550000X-0.550000X0.550000X-0.550000X0.550000X0.550000X0*%
%ADD13C,1.700000*%
%ADD14R,1.700000X1.700000*%
%ADD15C,2.000000*%
%ADD16RoundRect,0.250000X-0.750000X-0.750000X0.750000X-0.750000X0.750000X0.750000X-0.750000X0.750000X0*%
%ADD17RoundRect,0.250000X-0.550000X-0.550000X0.550000X-0.550000X0.550000X0.550000X-0.550000X0.550000X0*%
%ADD18C,2.400000*%
%ADD19RoundRect,0.250001X-0.949999X0.949999X-0.949999X-0.949999X0.949999X-0.949999X0.949999X0.949999X0*%
G04 APERTURE END LIST*
D10*
%TO.C,REF\u002A\u002A*%
X45250000Y-93800000D03*
%TD*%
%TO.C,REF\u002A\u002A*%
X5000000Y-225000000D03*
%TD*%
%TO.C,REF\u002A\u002A*%
X30850000Y-123800000D03*
%TD*%
%TO.C,REF\u002A\u002A*%
X91000000Y-192100000D03*
%TD*%
D11*
%TO.C,C9*%
X112050000Y-139400000D03*
D12*
X112050000Y-136900000D03*
%TD*%
D10*
%TO.C,REF\u002A\u002A*%
X74050000Y-34000000D03*
%TD*%
D13*
%TO.C,J16*%
X45800000Y-221200000D03*
D14*
X43260000Y-221200000D03*
%TD*%
D15*
%TO.C,J10*%
X65560000Y-5800000D03*
D16*
X61750000Y-5800000D03*
%TD*%
D15*
%TO.C,J12*%
X90510000Y-5800000D03*
D16*
X86700000Y-5800000D03*
%TD*%
D13*
%TO.C,J17*%
X68650000Y-221200000D03*
D14*
X66110000Y-221200000D03*
%TD*%
D11*
%TO.C,C4*%
X11850000Y-178850000D03*
D12*
X11850000Y-176850000D03*
%TD*%
D11*
%TO.C,C8*%
X59700000Y-18500000D03*
D17*
X57700000Y-18500000D03*
%TD*%
D10*
%TO.C,REF\u002A\u002A*%
X112100000Y-33950000D03*
%TD*%
%TO.C,REF\u002A\u002A*%
X45250000Y-34050000D03*
%TD*%
D11*
%TO.C,C11*%
X99317621Y-111200000D03*
D17*
X96817621Y-111200000D03*
%TD*%
D10*
%TO.C,REF\u002A\u002A*%
X115000000Y-225000000D03*
%TD*%
%TO.C,REF\u002A\u002A*%
X91000000Y-163350000D03*
%TD*%
D15*
%TO.C,J9*%
X77760000Y-5900000D03*
D16*
X73950000Y-5900000D03*
%TD*%
D10*
%TO.C,REF\u002A\u002A*%
X6250000Y-93700000D03*
%TD*%
D11*
%TO.C,C2*%
X21967621Y-113000000D03*
D17*
X19467621Y-113000000D03*
%TD*%
D11*
%TO.C,C5*%
X60400000Y-111100000D03*
D17*
X58400000Y-111100000D03*
%TD*%
D10*
%TO.C,REF\u002A\u002A*%
X31250000Y-192100000D03*
%TD*%
D13*
%TO.C,J8*%
X35875000Y-221250000D03*
D14*
X33335000Y-221250000D03*
%TD*%
D10*
%TO.C,REF\u002A\u002A*%
X83250000Y-33950000D03*
%TD*%
D11*
%TO.C,C6*%
X21450000Y-17750000D03*
D17*
X19450000Y-17750000D03*
%TD*%
D10*
%TO.C,REF\u002A\u002A*%
X34900000Y-93700000D03*
%TD*%
%TO.C,REF\u002A\u002A*%
X115000000Y-5000000D03*
%TD*%
D13*
%TO.C,J14*%
X81250000Y-221350000D03*
D14*
X78710000Y-221350000D03*
%TD*%
D18*
%TO.C,C1*%
X10800000Y-140326041D03*
D19*
X10800000Y-135326041D03*
%TD*%
D10*
%TO.C,REF\u002A\u002A*%
X34950000Y-33950000D03*
%TD*%
%TO.C,REF\u002A\u002A*%
X5000000Y-5000000D03*
%TD*%
%TO.C,REF\u002A\u002A*%
X73950000Y-93700000D03*
%TD*%
%TO.C,REF\u002A\u002A*%
X83350000Y-93750000D03*
%TD*%
%TO.C,REF\u002A\u002A*%
X30850000Y-152550000D03*
%TD*%
D13*
%TO.C,J15*%
X57000000Y-221350000D03*
D14*
X54460000Y-221350000D03*
%TD*%
D15*
%TO.C,J13*%
X52155000Y-5467500D03*
D16*
X48345000Y-5467500D03*
%TD*%
D10*
%TO.C,REF\u002A\u002A*%
X6150000Y-34000000D03*
%TD*%
D11*
%TO.C,C7*%
X112100000Y-177750000D03*
D17*
X110100000Y-177750000D03*
%TD*%
D10*
%TO.C,REF\u002A\u002A*%
X90650000Y-123800000D03*
%TD*%
%TO.C,REF\u002A\u002A*%
X31200000Y-163350000D03*
%TD*%
D15*
%TO.C,J11*%
X40650000Y-5450000D03*
D16*
X36840000Y-5450000D03*
%TD*%
D11*
%TO.C,C10*%
X77750000Y-18800000D03*
D17*
X75750000Y-18800000D03*
%TD*%
D10*
%TO.C,REF\u002A\u002A*%
X90650000Y-152500000D03*
%TD*%
%TO.C,REF\u002A\u002A*%
X112000000Y-93750000D03*
%TD*%
M02*
